<svg xmlns="http://www.w3.org/2000/svg" width="13" height="13" viewBox="0 0 13 13">
  <defs>
    <style>
      .cls-1 {
        fill: #fff;
        fill-rule: evenodd;
        opacity: 0.2;
      }
    </style>
  </defs>
  <path id="Dribbble" class="cls-1" d="M1319.45,4254.45h0a7.551,7.551,0,0,1,1.4-.14,8.562,8.562,0,0,1,1.96.25,5.426,5.426,0,0,1-2.56,3.6A19.3,19.3,0,0,0,1319.45,4254.45Zm-5.14,3.46h0a7.982,7.982,0,0,1,4.09-3.2,17.658,17.658,0,0,1,.8,3.94,4.9,4.9,0,0,1-1.71.26A5.694,5.694,0,0,1,1314.31,4257.91Zm4.78-4.51h0c-0.13-.29-0.24-0.6-0.38-0.89a14.019,14.019,0,0,0,3.25-2.06,5.526,5.526,0,0,1,.96,3.04,8.46,8.46,0,0,0-2.07-.29A10,10,0,0,0,1319.09,4253.4Zm2.16-3.8h0a11.712,11.712,0,0,1-3,1.91,21.565,21.565,0,0,0-2.16-3.22,5.094,5.094,0,0,1,1.4-.2A5.466,5.466,0,0,1,1321.25,4249.6Zm-4,2.31h0a12.575,12.575,0,0,1-4.4.78h-0.74a5.581,5.581,0,0,1,2.89-4A17.83,17.83,0,0,1,1317.25,4251.91Zm0.24-4.91h0a6.5,6.5,0,1,0,6.52,6.49A6.483,6.483,0,0,0,1317.49,4247Zm0.56,6.69h0a8.744,8.744,0,0,0-4.54,3.47,5.083,5.083,0,0,1-1.42-3.4c0.27,0,.51.04,0.76,0.04a14.192,14.192,0,0,0,4.86-.89A4.852,4.852,0,0,0,1318.05,4253.69Z" transform="translate(-1311 -4247)"/>
</svg>
