<svg xmlns="http://www.w3.org/2000/svg" width="20" height="13" viewBox="0 0 20 13">
  <defs>
    <style>
      .cls-1 {
        fill: #fff;
        fill-rule: evenodd;
        opacity: 0.2;
      }
    </style>
  </defs>
  <path id="G_" data-name="G+" class="cls-1" d="M1406.43,4249.88v2.17h-2.15v1.45h2.15v2.16h1.42v-2.16H1410v-1.45h-2.15v-2.17h-1.42Zm-10-2.88a6.5,6.5,0,1,0,6.43,6.5,6.164,6.164,0,0,0-.14-1.3l-0.03-.15h-6.26v2.17h4.28a4.358,4.358,0,0,1-4.28,3.61,4.335,4.335,0,0,1,0-8.67,4.226,4.226,0,0,1,2.8,1.06l1.53-1.52A6.33,6.33,0,0,0,1396.43,4247Z" transform="translate(-1390 -4247)"/>
</svg>
