<svg xmlns="http://www.w3.org/2000/svg" width="15" height="13" viewBox="0 0 15 13">
  <defs>
    <style>
      .cls-1 {
        fill: #fff;
        fill-rule: evenodd;
        opacity: 0.2;
      }
    </style>
  </defs>
  <path id="Medium" class="cls-1" d="M1366,4259.48a0.427,0.427,0,0,1-.44.48,0.891,0.891,0,0,1-.39-0.11l-0.65-.33-2.88-1.48,4.36-7.25v8.69Zm-9.29-3.96v-4.71l3.21,6.36-2.88-1.48Zm3.78-7.84,0.27-.43a0.48,0.48,0,0,1,.56-0.23,0.355,0.355,0,0,1,.09.04l4.53,2.31h0a0.01,0.01,0,0,1,.01.01,0.066,0.066,0,0,1,.02.07l-4.51,7.5-0.46.76-2.98-5.9Zm-4.49,11.8a0.442,0.442,0,0,1-.41.52,0.63,0.63,0,0,1-.28-0.08l-3.89-1.99a0.858,0.858,0,0,1-.42-0.69v-9.76a0.352,0.352,0,0,1,.33-0.41,0.417,0.417,0,0,1,.23.06l0.13,0.07h0l4.29,2.19a0.038,0.038,0,0,1,.02.02v10.07Z" transform="translate(-1351 -4247)"/>
</svg>
