<svg xmlns="http://www.w3.org/2000/svg" width="15" height="12" viewBox="0 0 15 12">
  <defs>
    <style>
      .cls-1 {
        fill: #fff;
        fill-rule: evenodd;
        opacity: 0.2;
      }
    </style>
  </defs>
  <path id="twitter" class="cls-1" d="M1283,4249.42a6.425,6.425,0,0,1-1.77.48,3.058,3.058,0,0,0,1.36-1.68,6.337,6.337,0,0,1-1.96.73,3.092,3.092,0,0,0-2.25-.96,3.06,3.06,0,0,0-3.08,3.04,3.174,3.174,0,0,0,.08.69,8.8,8.8,0,0,1-6.34-3.17,2.952,2.952,0,0,0-.42,1.53,3.014,3.014,0,0,0,1.37,2.52,3.2,3.2,0,0,1-1.39-.38v0.04a3.05,3.05,0,0,0,2.47,2.97,3.124,3.124,0,0,1-.82.1,2.63,2.63,0,0,1-.57-0.05,3.081,3.081,0,0,0,2.87,2.11,6.238,6.238,0,0,1-3.82,1.29,6.008,6.008,0,0,1-.74-0.04,8.8,8.8,0,0,0,4.72,1.36,8.624,8.624,0,0,0,8.76-8.62c0-.13,0-0.27-0.01-0.4a5.859,5.859,0,0,0,1.54-1.56" transform="translate(-1268 -4248)"/>
</svg>
