<svg xmlns="http://www.w3.org/2000/svg" xmlns:xlink="http://www.w3.org/1999/xlink" width="0" height="0" style="position:absolute">
	
		<symbol id="dribbble" viewBox="0 0 13 13">
			<path d="M8.45 7.45a7.551 7.551 0 0 1 1.4-.14 8.562 8.562 0 0 1 1.96.25 5.426 5.426 0 0 1-2.56 3.6 19.3 19.3 0 0 0-.8-3.71zm-5.14 3.46a7.982 7.982 0 0 1 4.09-3.2 17.658 17.658 0 0 1 .8 3.94 4.9 4.9 0 0 1-1.71.26 5.694 5.694 0 0 1-3.18-1zM8.09 6.4c-.13-.29-.24-.6-.38-.89a14.019 14.019 0 0 0 3.25-2.06 5.526 5.526 0 0 1 .96 3.04 8.46 8.46 0 0 0-2.07-.29 10 10 0 0 0-1.76.2zm2.16-3.8a11.712 11.712 0 0 1-3 1.91 21.565 21.565 0 0 0-2.16-3.22 5.094 5.094 0 0 1 1.4-.2 5.466 5.466 0 0 1 3.76 1.51zm-4 2.31a12.575 12.575 0 0 1-4.4.78h-.74a5.581 5.581 0 0 1 2.89-4 17.83 17.83 0 0 1 2.25 3.22zM6.49 0a6.5 6.5 0 1 0 6.52 6.49A6.483 6.483 0 0 0 6.49 0zm.56 6.69a8.744 8.744 0 0 0-4.54 3.47 5.083 5.083 0 0 1-1.42-3.4c.27 0 .51.04.76.04a14.192 14.192 0 0 0 4.86-.89 4.852 4.852 0 0 0 .34.78z"></path>
		</symbol>
	
		<symbol id="facebook" viewBox="0 0 6 13">
			<path d="M4.27 13H1.6V6.5H0V4.34h1.6V3.02c0-1.81.54-3.01 2.64-3.01h1.63v2.16h-.98c-.82 0-.87.4-.87.97v1.2h1.97L5.76 6.5H4.27V13z"></path>
		</symbol>
	
		<symbol id="g+" viewBox="0 0 20 13">
			<path d="M16.43 2.88v2.17h-2.15V6.5h2.15v2.16h1.42V6.5H20V5.05h-2.15V2.88h-1.42zM6.43 0a6.5 6.5 0 1 0 6.43 6.5 6.164 6.164 0 0 0-.14-1.3l-.03-.15H6.43v2.17h4.28a4.358 4.358 0 0 1-4.28 3.61 4.335 4.335 0 0 1 0-8.67 4.226 4.226 0 0 1 2.8 1.06l1.53-1.52A6.33 6.33 0 0 0 6.43 0z"></path>
		</symbol>
	
		<symbol id="icons8" viewBox="0 0 51 12">
			<text transform="matrix(.091 0 0 .09 -1.099 .982)">icons8</text>
		</symbol>
	
		<symbol id="instagram" viewBox="0 0 13 13">
			<path d="M6.5 4.33A2.17 2.17 0 1 0 8.67 6.5 2.168 2.168 0 0 0 6.5 4.33zm0-1.44A3.61 3.61 0 1 1 2.89 6.5 3.615 3.615 0 0 1 6.5 2.89zm4.33-1.45a.725.725 0 1 1-.72.73.734.734 0 0 1 .72-.73zM3.61 0A3.615 3.615 0 0 0 0 3.61v5.78A3.615 3.615 0 0 0 3.61 13h5.78A3.615 3.615 0 0 0 13 9.39V3.61A3.615 3.615 0 0 0 9.39 0H3.61z"></path>
		</symbol>
	
		<symbol id="medium" viewBox="0 0 15 13">
			<path d="M15 12.48a.427.427 0 0 1-.44.48.891.891 0 0 1-.39-.11l-.65-.33-2.88-1.48L15 3.79v8.69zM5.71 8.52V3.81l3.21 6.36-2.88-1.48zM9.49.68l.27-.43a.48.48 0 0 1 .56-.23.355.355 0 0 1 .09.04l4.53 2.31a.01.01 0 0 1 .01.01.066.066 0 0 1 .02.07l-4.51 7.5-.46.76-2.98-5.9zM5 12.48a.442.442 0 0 1-.41.52.63.63 0 0 1-.28-.08L.42 10.93a.858.858 0 0 1-.42-.69V.48A.352.352 0 0 1 .33.07a.417.417 0 0 1 .23.06L.69.2l4.29 2.19a.038.038 0 0 1 .02.02v10.07z"></path>
		</symbol>
	
		<symbol id="menu" viewBox="0 0 8 38">
			<path d="M0 0h2v38H0V0zm6 0h2v38H6V0z"></path>
		</symbol>
	
		<symbol id="twitter" viewBox="0 0 15 12">
			<path d="M15 1.42a6.425 6.425 0 0 1-1.77.48A3.058 3.058 0 0 0 14.59.22a6.337 6.337 0 0 1-1.96.73 3.092 3.092 0 0 0-2.25-.96A3.06 3.06 0 0 0 7.3 3.03a3.174 3.174 0 0 0 .08.69A8.8 8.8 0 0 1 1.04.55a2.952 2.952 0 0 0-.42 1.53A3.014 3.014 0 0 0 1.99 4.6 3.2 3.2 0 0 1 .6 4.22v.04a3.05 3.05 0 0 0 2.47 2.97 3.124 3.124 0 0 1-.82.1 2.63 2.63 0 0 1-.57-.05 3.081 3.081 0 0 0 2.87 2.11 6.238 6.238 0 0 1-3.82 1.29 6.008 6.008 0 0 1-.74-.04A8.8 8.8 0 0 0 4.71 12a8.624 8.624 0 0 0 8.76-8.62c0-.13 0-.27-.01-.4A5.859 5.859 0 0 0 15 1.42"></path>
		</symbol>
	
</svg>
